{"title":"Gangsta.2015.S01E01-E12.Webrip.Eng.Dub.MKV-Mr_KeFF","uid":13095130,"size":6690305227,"categoryP":"video","categoryS":"tv_shows","magnet":"?xt=urn:btih:1a24141ec823f1b4065db869fa745b02671dbe20&amp;dn=Gangsta.2015.S01E01-E12.Webrip.Eng.Dub.MKV-Mr_KeFF&amp;tr=udp%3A%2F%2Ftracker.leechers-paradise.org%3A6969&amp;tr=udp%3A%2F%2Fzer0day.ch%3A1337&amp;tr=udp%3A%2F%2Fopen.demonii.com%3A1337&amp;tr=udp%3A%2F%2Ftracker.coppersurfer.tk%3A6969&amp;tr=udp%3A%2F%2Fexodus.desync.com%3A6969","seeders":0,"leechers":4,"uploader":"Sir_TankaLot","files":38,"time":1451109987,"description":"http://lookpic.com/O/i2/472/tVlw2q96.jpeg\r\n\r\nGangsta.2015.S01E01-E12.Webrip.Eng.Dub.MKV-Mr_KeFF\r\n\r\n[plot]\r\n\r\nIn the city of Ergastulum, a shady ville filled with made men and petty thieves, whores on the make and cops on the take, there are some deeds too dirty for even its jaded inhabitants to touch. Enter the &quot;Handymen,&quot; Nic and Worick, who take care of the jobs no one else will handle. A new group attempts to muscle in on their block and the cops enlist them to weed out the upstarts no questions asked. The only thing is, there's a witness to the slaughter that they absolutely refuse to silence, so they decide to take her in instead.\r\n \nhttp://www.imdb.com/title/tt5025394/\r\n \r\n[cast]\r\n\r\n Tomohisa Hashizume ... Delico\r\nKatsuhisa Hôki \tKatsuhisa Hôki ... Daniel Monroe\r\nMasako Isobe \tMasako Isobe ... Joel Raveau\r\nTetsuo Kana \tTetsuo Kana ... Chad Adkins\r\nAmi Koshimizu \tAmi Koshimizu ... Constance Raveau\r\nSatoshi Mikami \tSatoshi Mikami ... Dr. Theo\r\nMamiko Noto \tMamiko Noto ... Alex Benedetto \r\n\r\n\r\n\r\nVideo\r\nFormat                                   : MPEG-4 Visual\r\nFormat profile                           :   \r\nFormat settings, BVOP                    : No\r\nFormat settings, QPel                    : No\r\nFormat settings, GMC                     : No warppoints\r\nFormat settings, Matrix                  : Default (H.263)\r\nCodec ID                                 : V_MPEG4/ISO/ASP\r\nCodec ID/Info                            : Advanced Simple Profile\r\nBit rate                                 : 2 813 Kbps\r\nWidth                                    : 1 280 pixels\r\nHeight                                   : 720 pixels\r\nDisplay aspect ratio                     : 16:9\r\nFrame rate mode                          : Constant\r\nFrame rate                               : 23.976 fps\r\nColor space                              : YUV\r\nChroma subsampling                       : 4:2:0\r\nBit depth                                : 8 bits\r\nScan type                                : Progressive\r\nCompression mode                         : Lossy\r\nBits/(Pixel*Frame)                       : 0.127\r\nStream size                              : 481 MiB (96%)\r\nWriting library                          : Lavc53.6.1\r\nDefault                                  : Yes\r\nForced                                   : No\r\n\r\nAudio\r\nFormat                                   : MPEG Audio\r\nFormat version                           : Version 1\r\nFormat profile                           : Layer 2\r\nCodec ID                                 : A_MPEG/L2\r\nCodec ID/Hint                            : MP2\r\nBit rate mode                            : Constant\r\nBit rate                                 : 64.0 Kbps\r\nChannel count                            : 2 channels\r\nSampling rate                            : 44.1 KHz\r\nCompression mode                         : Lossy\r\nStream size                              : 10.9 MiB (2%)\r\nLanguage                                 : English\r\nDefault                                  : Yes\r\nForced                                   : No\r\nEncoded date                             : UTC 2015-09-08 19:24:23\r\n\r\n[greets]\r\n\r\nVajnis, Little Devil, Haggebulle.\r\n\r\n\r\n\r\n   ,--.   ,--.          ,--. ,--.        ,------.,------. \r\n   |   `.'   |,--.--.   |  .'   / ,---.  |  .---'|  .---' \r\n   |  |'.'|  ||  .--'   |  .   ' | .-. : |  `--, |  `--,  \r\n   |  |   |  ||  |,----.|  |   \\   --. |  |`   |  |`    \r\n   `--'   `--'`--''----'`--' '--' `----' `--'    `--'     \r\n\r\n[footer] [/center]","torrent":{"xt":"urn:btih:1a24141ec823f1b4065db869fa745b02671dbe20","amp;dn":"Gangsta.2015.S01E01-E12.Webrip.Eng.Dub.MKV-Mr_KeFF","amp;tr":["udp%3A%2F%2Ftracker.leechers-paradise.org%3A6969","udp%3A%2F%2Fzer0day.ch%3A1337","udp%3A%2F%2Fopen.demonii.com%3A1337","udp%3A%2F%2Ftracker.coppersurfer.tk%3A6969","udp%3A%2F%2Fexodus.desync.com%3A6969"],"infoHash":"1a24141ec823f1b4065db869fa745b02671dbe20","infoHashBuffer":{"type":"Buffer","data":[26,36,20,30,200,35,241,180,6,93,184,105,250,116,91,2,103,29,190,32]},"announce":[],"urlList":[]}}